<svg width="330" height="60" viewBox="0 0 330 60" fill="none" xmlns="http://www.w3.org/2000/svg">
<g clip-path="url(#clip0_310_1372)">
<rect width="330" height="60" fill="white"/>
<rect x="76" y="38" width="10" height="4" fill="white"/>
<path d="M125.063 33.78C125.063 35.1 124.603 36.1333 123.683 36.88C122.777 37.6267 121.53 38 119.943 38H114.323V23.64H119.723C121.243 23.64 122.437 23.9733 123.303 24.64C124.17 25.3067 124.603 26.2467 124.603 27.46C124.603 28.7933 123.93 29.8067 122.583 30.5C124.237 31.0733 125.063 32.1667 125.063 33.78ZM119.483 26.04H117.083V29.38H119.483C120.217 29.38 120.77 29.2333 121.143 28.94C121.53 28.6467 121.723 28.2333 121.723 27.7C121.723 27.18 121.53 26.7733 121.143 26.48C120.77 26.1867 120.217 26.04 119.483 26.04ZM119.703 31.8H117.083V35.6H119.703C120.517 35.6 121.137 35.4333 121.563 35.1C121.99 34.7533 122.203 34.2733 122.203 33.66C122.203 33.0867 121.99 32.6333 121.563 32.3C121.137 31.9667 120.517 31.8 119.703 31.8ZM130.433 38.18C128.833 38.18 127.539 37.6733 126.553 36.66C125.579 35.6333 125.093 34.2867 125.093 32.62C125.093 31.0333 125.593 29.72 126.593 28.68C127.593 27.64 128.859 27.12 130.393 27.12C132.086 27.12 133.426 27.72 134.413 28.92C135.399 30.12 135.766 31.5933 135.513 33.34H127.933C128.119 35.14 128.933 36.04 130.373 36.04C131.613 36.04 132.399 35.4867 132.733 34.38H135.493C135.199 35.5933 134.606 36.5333 133.713 37.2C132.833 37.8533 131.739 38.18 130.433 38.18ZM130.333 29.16C128.999 29.16 128.213 29.9667 127.973 31.58H132.573C132.533 30.8333 132.313 30.2467 131.913 29.82C131.513 29.38 130.986 29.16 130.333 29.16ZM145.384 27.32L140.184 41.86H137.164L138.684 37.88L134.484 27.32H137.484L140.164 34.64L142.604 27.32H145.384ZM153.572 36.6C152.546 37.6667 151.259 38.2 149.712 38.2C148.166 38.2 146.872 37.6667 145.832 36.6C144.806 35.5333 144.292 34.22 144.292 32.66C144.292 31.1 144.806 29.7867 145.832 28.72C146.872 27.6533 148.166 27.12 149.712 27.12C151.259 27.12 152.546 27.6533 153.572 28.72C154.612 29.7867 155.132 31.1 155.132 32.66C155.132 34.22 154.612 35.5333 153.572 36.6ZM147.892 34.92C148.386 35.4667 148.992 35.74 149.712 35.74C150.432 35.74 151.039 35.4667 151.532 34.92C152.026 34.3733 152.272 33.62 152.272 32.66C152.272 31.7133 152.026 30.9667 151.532 30.42C151.039 29.8733 150.432 29.6 149.712 29.6C148.992 29.6 148.386 29.8733 147.892 30.42C147.399 30.9667 147.152 31.7133 147.152 32.66C147.152 33.62 147.399 34.3733 147.892 34.92ZM158.446 32.18V38H155.666V27.32H158.226V28.84C159.066 27.6933 160.16 27.12 161.506 27.12C162.6 27.12 163.473 27.4667 164.126 28.16C164.793 28.8533 165.126 29.8333 165.126 31.1V38H162.366V32.04C162.366 30.4 161.74 29.58 160.486 29.58C159.9 29.58 159.413 29.8067 159.026 30.26C158.64 30.7133 158.446 31.3533 158.446 32.18ZM165.582 32.66C165.582 31.06 166.015 29.74 166.882 28.7C167.762 27.6467 168.908 27.12 170.322 27.12C171.602 27.12 172.655 27.6467 173.482 28.7V23.64H176.242V38H173.702V36.46C172.835 37.62 171.708 38.2 170.322 38.2C168.908 38.2 167.762 37.6733 166.882 36.62C166.015 35.5667 165.582 34.2467 165.582 32.66ZM168.442 32.66C168.442 33.62 168.675 34.3733 169.142 34.92C169.622 35.4533 170.222 35.72 170.942 35.72C171.662 35.72 172.262 35.4467 172.742 34.9C173.222 34.3533 173.462 33.5933 173.462 32.62C173.462 31.6467 173.222 30.9 172.742 30.38C172.262 29.8467 171.662 29.58 170.942 29.58C170.222 29.58 169.622 29.8533 169.142 30.4C168.675 30.9333 168.442 31.6867 168.442 32.66ZM190.263 38L189.183 34.92H183.603L182.503 38H179.443L184.843 23.64H188.163L193.523 38H190.263ZM186.423 26.96L184.463 32.5H188.343L186.423 26.96ZM196.592 38H193.792V23.64H196.592V38ZM207.185 28.7C208.065 29.74 208.505 31.06 208.505 32.66C208.505 34.26 208.065 35.5867 207.185 36.64C206.319 37.68 205.179 38.2 203.765 38.2C202.485 38.2 201.439 37.6733 200.625 36.62V41.86H197.845V27.32H200.405V28.88C201.245 27.7067 202.365 27.12 203.765 27.12C205.179 27.12 206.319 27.6467 207.185 28.7ZM205.645 32.66C205.645 31.7 205.405 30.9467 204.925 30.4C204.445 29.8533 203.852 29.58 203.145 29.58C202.425 29.58 201.825 29.8533 201.345 30.4C200.879 30.9333 200.645 31.6867 200.645 32.66C200.645 33.6333 200.879 34.3867 201.345 34.92C201.825 35.4533 202.425 35.72 203.145 35.72C203.865 35.72 204.459 35.4533 204.925 34.92C205.405 34.3867 205.645 33.6333 205.645 32.66ZM211.827 32.18V38H209.047V23.64H211.827V28.72C212.627 27.6533 213.647 27.12 214.887 27.12C215.98 27.12 216.853 27.4667 217.507 28.16C218.173 28.8533 218.507 29.8333 218.507 31.1V38H215.747V32.04C215.747 30.4 215.12 29.58 213.867 29.58C213.28 29.58 212.793 29.8067 212.407 30.26C212.02 30.7133 211.827 31.3533 211.827 32.18ZM226.022 38V36.68C225.315 37.6933 224.242 38.2 222.802 38.2C221.695 38.2 220.802 37.9 220.122 37.3C219.442 36.7 219.102 35.9 219.102 34.9C219.102 33.86 219.509 33.0667 220.322 32.52C221.149 31.9733 222.342 31.7 223.902 31.7C224.435 31.7 225.029 31.74 225.682 31.82V31.18C225.682 30.58 225.522 30.1133 225.202 29.78C224.882 29.4467 224.429 29.28 223.842 29.28C223.242 29.28 222.769 29.4467 222.422 29.78C222.075 30.1133 221.875 30.58 221.822 31.18H219.322C219.402 29.9533 219.849 28.9733 220.662 28.24C221.489 27.4933 222.549 27.12 223.842 27.12C225.242 27.12 226.329 27.4867 227.102 28.22C227.889 28.9533 228.282 29.9733 228.282 31.28V38H226.022ZM221.722 34.82C221.722 35.2733 221.869 35.6333 222.162 35.9C222.469 36.1533 222.882 36.28 223.402 36.28C224.109 36.28 224.662 36.1 225.062 35.74C225.475 35.38 225.682 34.8867 225.682 34.26V33.5C225.069 33.4067 224.535 33.36 224.082 33.36C222.509 33.36 221.722 33.8467 221.722 34.82ZM244.977 23.64L239.777 38H236.457L231.297 23.64H234.577L238.217 34.46L241.937 23.64H244.977ZM248.336 38.18C246.736 38.18 245.443 37.6733 244.456 36.66C243.483 35.6333 242.996 34.2867 242.996 32.62C242.996 31.0333 243.496 29.72 244.496 28.68C245.496 27.64 246.763 27.12 248.296 27.12C249.989 27.12 251.329 27.72 252.316 28.92C253.303 30.12 253.669 31.5933 253.416 33.34H245.836C246.023 35.14 246.836 36.04 248.276 36.04C249.516 36.04 250.303 35.4867 250.636 34.38H253.396C253.103 35.5933 252.509 36.5333 251.616 37.2C250.736 37.8533 249.643 38.18 248.336 38.18ZM248.236 29.16C246.903 29.16 246.116 29.9667 245.876 31.58H250.476C250.436 30.8333 250.216 30.2467 249.816 29.82C249.416 29.38 248.889 29.16 248.236 29.16ZM256.818 32.18V38H254.038V27.32H256.598V28.84C257.438 27.6933 258.531 27.12 259.878 27.12C260.971 27.12 261.845 27.4667 262.498 28.16C263.165 28.8533 263.498 29.8333 263.498 31.1V38H260.738V32.04C260.738 30.4 260.111 29.58 258.858 29.58C258.271 29.58 257.785 29.8067 257.398 30.26C257.011 30.7133 256.818 31.3533 256.818 32.18ZM271.215 35.3V37.72C270.575 38.04 269.862 38.2 269.075 38.2C267.955 38.2 267.075 37.8867 266.435 37.26C265.809 36.6333 265.495 35.7267 265.495 34.54V29.7H263.335V27.32H265.495V24.16H268.255V27.32H271.315V29.7H268.255V33.9C268.255 35.06 268.775 35.64 269.815 35.64C270.335 35.64 270.802 35.5267 271.215 35.3ZM278.273 33.5V27.32H281.033V38H278.493V36.6C278.2 37.08 277.773 37.4667 277.213 37.76C276.653 38.0533 276.04 38.2 275.373 38.2C274.253 38.2 273.353 37.86 272.673 37.18C272.006 36.4867 271.673 35.4667 271.673 34.12V27.32H274.453V33.58C274.453 35.02 275.073 35.74 276.313 35.74C276.846 35.74 277.306 35.54 277.693 35.14C278.08 34.74 278.273 34.1933 278.273 33.5ZM285.071 32.82V38H282.291V27.32H284.851V29.38C285.237 28.7133 285.811 28.1867 286.571 27.8C287.331 27.4 288.144 27.2 289.011 27.2V30.08C287.731 29.9867 286.751 30.14 286.071 30.54C285.404 30.94 285.071 31.7 285.071 32.82ZM293.777 38.18C292.177 38.18 290.883 37.6733 289.897 36.66C288.923 35.6333 288.437 34.2867 288.437 32.62C288.437 31.0333 288.937 29.72 289.937 28.68C290.937 27.64 292.203 27.12 293.737 27.12C295.43 27.12 296.77 27.72 297.757 28.92C298.743 30.12 299.11 31.5933 298.857 33.34H291.277C291.463 35.14 292.277 36.04 293.717 36.04C294.957 36.04 295.743 35.4867 296.077 34.38H298.837C298.543 35.5933 297.95 36.5333 297.057 37.2C296.177 37.8533 295.083 38.18 293.777 38.18ZM293.677 29.16C292.343 29.16 291.557 29.9667 291.317 31.58H295.917C295.877 30.8333 295.657 30.2467 295.257 29.82C294.857 29.38 294.33 29.16 293.677 29.16ZM308.499 34.58C308.499 35.7133 308.085 36.6 307.259 37.24C306.432 37.88 305.265 38.2 303.759 38.2C302.265 38.2 301.092 37.8667 300.239 37.2C299.385 36.52 298.905 35.5733 298.799 34.36H301.459C301.472 34.9067 301.692 35.3467 302.119 35.68C302.545 36 303.105 36.16 303.799 36.16C304.372 36.16 304.832 36.0667 305.179 35.88C305.525 35.6933 305.699 35.42 305.699 35.06C305.699 34.7267 305.585 34.48 305.359 34.32C305.132 34.1467 304.759 34.0067 304.239 33.9L302.319 33.54C301.345 33.3667 300.585 33.02 300.039 32.5C299.505 31.9667 299.239 31.2933 299.239 30.48C299.239 29.48 299.632 28.6733 300.419 28.06C301.219 27.4333 302.279 27.12 303.599 27.12C304.945 27.12 306.045 27.4533 306.899 28.12C307.752 28.7867 308.225 29.6933 308.319 30.84H305.659C305.605 30.32 305.392 29.9133 305.019 29.62C304.659 29.3133 304.185 29.16 303.599 29.16C303.079 29.16 302.665 29.2533 302.359 29.44C302.052 29.6267 301.899 29.8867 301.899 30.22C301.899 30.5267 302.005 30.76 302.219 30.92C302.445 31.08 302.805 31.2067 303.299 31.3L305.359 31.68C307.452 32.08 308.499 33.0467 308.499 34.58Z" fill="#0D0733"/>
<rect x="-4" y="2" width="92" height="60" fill="#0D0733"/>
<path d="M57.6682 19.2444L62.8451 36.1992H63.0372L68.2141 19.2444H74.476L66.6655 42.3933H59.2167L51.4062 19.2444H57.6682Z" fill="white"/>
<path d="M48.2486 42.3933H42.2354L50.0458 19.2444H57.4946L65.3051 42.3933H59.2919L53.855 25.0768H53.6742L48.2486 42.3933ZM47.4461 33.2829H60.0153V37.5329H47.4461V33.2829Z" fill="white"/>
<path d="M28.3164 42.3933V19.2444H37.9693C39.7025 19.2444 41.153 19.4893 42.321 19.9791C43.4966 20.4689 44.3782 21.1546 44.966 22.0363C45.5613 22.9179 45.8589 23.939 45.8589 25.0994C45.8589 25.9811 45.6743 26.7685 45.3051 27.4618C44.9358 28.1475 44.4272 28.7165 43.7792 29.1686C43.1311 29.6207 42.3813 29.9372 41.5298 30.118V30.3441C42.4642 30.3893 43.327 30.6418 44.1182 31.1014C44.917 31.5611 45.5575 32.2016 46.0398 33.023C46.5221 33.8368 46.7632 34.8013 46.7632 35.9166C46.7632 37.1599 46.4467 38.2714 45.8137 39.251C45.1807 40.2231 44.2652 40.9917 43.0671 41.5569C41.8689 42.1145 40.4146 42.3933 38.704 42.3933H28.3164ZM33.9115 37.8833H37.3703C38.5835 37.8833 39.4764 37.6535 40.0491 37.1938C40.6293 36.7342 40.9195 36.0937 40.9195 35.2723C40.9195 34.677 40.78 34.1646 40.5012 33.7351C40.2224 33.298 39.8268 32.9627 39.3144 32.7291C38.802 32.4879 38.1878 32.3674 37.472 32.3674H33.9115V37.8833ZM33.9115 28.7617H37.0086C37.6189 28.7617 38.1615 28.6599 38.6362 28.4565C39.1109 28.253 39.4802 27.9591 39.7439 27.5748C40.0152 27.1905 40.1508 26.7271 40.1508 26.1845C40.1508 25.4084 39.8758 24.798 39.3257 24.3534C38.7756 23.9088 38.0334 23.6865 37.099 23.6865H33.9115V28.7617Z" fill="white"/>
<path d="M28.3164 42.3933V19.2444H37.9693C39.7025 19.2444 41.153 19.4893 42.321 19.9791C43.4966 20.4689 44.3782 21.1546 44.966 22.0363C45.5613 22.9179 45.8589 23.939 45.8589 25.0994C45.8589 25.9811 45.6743 26.7685 45.3051 27.4618C44.9358 28.1475 44.4272 28.7165 43.7792 29.1686C43.1311 29.6207 42.3813 29.9372 41.5298 30.118V30.3441C42.4642 30.3893 43.327 30.6418 44.1182 31.1014C44.917 31.5611 45.5575 32.2016 46.0398 33.023C46.5221 33.8368 46.7632 34.8013 46.7632 35.9166C46.7632 37.1599 46.4467 38.2714 45.8137 39.251C45.1807 40.2231 44.2652 40.9917 43.0671 41.5569C41.8689 42.1145 40.4146 42.3933 38.704 42.3933H28.3164ZM33.9115 37.8833H37.3703C38.5835 37.8833 39.4764 37.6535 40.0491 37.1938C40.6293 36.7342 40.9195 36.0937 40.9195 35.2723C40.9195 34.677 40.78 34.1646 40.5012 33.7351C40.2224 33.298 39.8268 32.9627 39.3144 32.7291C38.802 32.4879 38.1878 32.3674 37.472 32.3674H33.9115V37.8833ZM33.9115 28.7617H37.0086C37.6189 28.7617 38.1615 28.6599 38.6362 28.4565C39.1109 28.253 39.4802 27.9591 39.7439 27.5748C40.0152 27.1905 40.1508 26.7271 40.1508 26.1845C40.1508 25.4084 39.8758 24.798 39.3257 24.3534C38.7756 23.9088 38.0334 23.6865 37.099 23.6865H33.9115V28.7617Z" fill="white"/>
<rect x="45.2783" y="28.4473" width="8.0524" height="2.95501" fill="#0D0733"/>
<rect x="60.3545" y="36.5776" width="9.91736" height="2.97521" fill="#0D0733"/>
<path fill-rule="evenodd" clip-rule="evenodd" d="M27.0641 18.4382C27.4949 18.2152 27.786 17.79 27.786 17.3021C27.786 16.583 27.1534 16 26.3732 16C25.5929 16 24.9604 16.583 24.9604 17.3021C24.9604 17.7733 25.2319 18.1859 25.6385 18.4146C24.9297 18.5176 23.9226 18.8384 23.5162 19.8173H21.8837C21.5321 19.9831 21.6744 20.281 21.7895 20.4092C23.1361 21.7223 23.723 23.695 23.8819 25.8844H23.5613C23.3979 25.8844 23.2654 26.0169 23.2654 26.1804C23.2654 26.3438 23.3979 26.4763 23.5613 26.4763H23.9145C23.9236 26.7133 23.9281 26.9524 23.9285 27.1929C23.6205 27.2311 23.3649 27.4384 23.2575 27.7191H23.0141V27.7198C23.0037 27.7193 22.9932 27.7191 22.9827 27.7191C22.6533 27.7191 22.3862 27.9708 22.3862 28.2814C22.3862 28.5919 22.6533 28.8436 22.9827 28.8436C22.9932 28.8436 23.0037 28.8434 23.0141 28.8429V28.8436H23.8727C23.6971 31.4959 23.1437 34.1792 22.7249 36.2093C22.6846 36.4045 22.6456 36.5937 22.6083 36.7763H22.0373C21.6313 36.8696 21.699 37.1846 21.7836 37.3305C22.1388 37.5405 22.1113 38.011 21.9739 38.2638C21.9569 38.4359 21.5567 38.6247 21.1305 38.8258C20.762 38.9997 20.3741 39.1828 20.1975 39.3722C19.893 39.6988 20.0072 40.15 20.1024 40.3347L21.1809 41.2389C20.2673 41.6122 20.2504 41.9972 20.3879 42.143L21.1809 42.9597H26.2789V42.9599H31.377L32.17 42.1432C32.3075 41.9974 32.2906 41.6124 31.377 41.239L32.4555 40.3348C32.5507 40.1501 32.6649 39.699 32.3604 39.3723C32.1838 39.183 31.7959 38.9999 31.4274 38.826C31.0012 38.6248 30.601 38.436 30.584 38.264C30.4466 38.0112 30.4191 37.5406 30.7744 37.3306C30.8589 37.1848 30.9266 36.8698 30.5206 36.7764H29.9496C29.9123 36.5939 29.8733 36.4047 29.833 36.2095C29.4142 34.1793 28.8607 31.496 28.6852 28.8436H29.5757H29.6071V28.8429C29.9219 28.8275 30.1722 28.582 30.1722 28.2814C30.1722 27.9808 29.9219 27.7352 29.6071 27.7198V27.7191H29.5757H29.302C29.1944 27.438 28.9381 27.2304 28.6294 27.1927C28.6298 26.9522 28.6344 26.7133 28.6434 26.4763H28.9973C29.1607 26.4763 29.2932 26.3438 29.2932 26.1804C29.2932 26.0169 29.1607 25.8844 28.9973 25.8844H28.676C28.835 23.6951 29.4218 21.7225 30.7684 20.4094C30.8835 20.2811 31.0258 19.9832 30.6742 19.8175H29.0417C28.6622 18.9035 27.7591 18.5632 27.0641 18.4382Z" fill="#7EA1C4"/>
</g>
<defs>
<clipPath id="clip0_310_1372">
<rect width="330" height="60" fill="white"/>
</clipPath>
</defs>
</svg>
