<svg width="88" height="60" viewBox="0 0 88 60" fill="none" xmlns="http://www.w3.org/2000/svg">
<g clip-path="url(#clip0_313_688)">
<rect x="76" y="38" width="10" height="4" fill="white"/>
<path d="M60.4796 14.6838L68.3399 40.4273H68.6317L76.492 14.6838H85.9999L74.1408 49.8322H62.8308L50.9717 14.6838H60.4796Z" fill="#0D0733"/>
<path d="M46.1782 49.8322H37.0479L48.907 14.6838H60.2169L72.0761 49.8322H62.9457L54.6907 23.5396H54.4161L46.1782 49.8322ZM44.9597 35.9994H64.0441V42.4524H44.9597V35.9994Z" fill="#0D0733"/>
<path d="M13.7725 49.8322V14.6838H28.429C31.0606 14.6838 33.2631 15.0557 35.0365 15.7994C36.8214 16.5431 38.1601 17.5843 39.0525 18.9229C39.9564 20.2616 40.4083 21.8119 40.4083 23.5739C40.4083 24.9126 40.128 26.1082 39.5674 27.1608C39.0067 28.202 38.2344 29.0658 37.2505 29.7523C36.2665 30.4388 35.1281 30.9194 33.8352 31.194V31.5372C35.2539 31.6058 36.564 31.9891 37.7653 32.6871C38.9781 33.385 39.9507 34.3575 40.6829 35.6047C41.4152 36.8403 41.7813 38.3049 41.7813 39.9982C41.7813 41.886 41.3008 43.5737 40.3397 45.0611C39.3786 46.537 37.9884 47.7041 36.1692 48.5622C34.35 49.4088 32.1418 49.8322 29.5446 49.8322H13.7725ZM22.2678 42.9844H27.5194C29.3615 42.9844 30.7174 42.6355 31.5869 41.9375C32.4679 41.2396 32.9084 40.2671 32.9084 39.0199C32.9084 38.1161 32.6967 37.338 32.2734 36.6859C31.8501 36.0223 31.2494 35.5131 30.4714 35.1584C29.6933 34.7923 28.7609 34.6092 27.6739 34.6092H22.2678V42.9844ZM22.2678 29.1345H26.9703C27.897 29.1345 28.7208 28.98 29.4416 28.6711C30.1624 28.3622 30.7231 27.916 31.1235 27.3324C31.5354 26.7489 31.7414 26.0453 31.7414 25.2215C31.7414 24.043 31.3237 23.1162 30.4885 22.4412C29.6533 21.7661 28.5263 21.4286 27.1076 21.4286H22.2678V29.1345Z" fill="#0D0733"/>
<path d="M40.2607 29.6445H54.4857V33.0781H40.2607V29.6445Z" fill="white"/>
<path d="M65.7666 41.6621H79.9916V45.0957H65.7666V41.6621Z" fill="white"/>
<path fill-rule="evenodd" clip-rule="evenodd" d="M12.7884 12.7234C13.4462 12.3827 13.8906 11.7335 13.8906 10.9886C13.8906 9.89032 12.9246 9 11.733 9C10.5414 9 9.57547 9.89032 9.57547 10.9886C9.57547 11.7082 9.99021 12.3386 10.6114 12.6877C9.5289 12.8449 7.99061 13.3348 7.36992 14.83H4.87674C4.33975 15.0831 4.55711 15.538 4.73291 15.7339C6.78935 17.7392 7.68557 20.7517 7.92831 24.0951H7.43856C7.18896 24.0951 6.98661 24.2975 6.98661 24.5471C6.98661 24.7967 7.18896 24.999 7.43856 24.999H7.9781C7.99195 25.3611 7.9989 25.7262 7.99955 26.0935C7.52912 26.1519 7.13879 26.4685 6.97479 26.8971H6.60311V26.8983C6.58723 26.8975 6.57124 26.8971 6.55516 26.8971C6.05205 26.8971 5.64419 27.2816 5.64419 27.7558C5.64419 28.2301 6.05205 28.6145 6.55516 28.6145C6.57124 28.6145 6.58723 28.6141 6.60311 28.6133V28.6145H7.91427C7.64623 32.6651 6.80094 36.763 6.1614 39.8634L6.16137 39.8635C6.09988 40.1617 6.04029 40.4505 5.9833 40.7293H5.11133C4.49127 40.8718 4.59462 41.3529 4.7238 41.5756C5.26635 41.8963 5.22437 42.6149 5.01445 43.001C4.98847 43.2637 4.37738 43.5521 3.72654 43.8593C3.16375 44.1248 2.57125 44.4045 2.30168 44.6936C1.83664 45.1925 2.01103 45.8815 2.15636 46.1636L3.80339 47.5444C2.40825 48.1146 2.38246 48.7025 2.59238 48.9253L3.80344 50.1725H11.5891V50.1722H19.3747L20.5857 48.925C20.7956 48.7023 20.7699 48.1143 19.3747 47.5442L21.0218 46.1633C21.1671 45.8812 21.3415 45.1923 20.8764 44.6934C20.6069 44.4042 20.0144 44.1246 19.4516 43.859C18.8007 43.5519 18.1896 43.2635 18.1637 43.0007C17.9537 42.6147 17.9118 41.8961 18.4543 41.5754C18.5835 41.3526 18.6868 40.8716 18.0668 40.729H17.1948C17.1386 40.4542 17.0799 40.1694 17.0193 39.8757L17.0184 39.8715L17.0179 39.869L17.0167 39.8633L17.0167 39.8632C16.3772 36.7628 15.5319 32.665 15.2639 28.6145H16.6238H16.6717V28.6133C17.1525 28.5898 17.5347 28.2149 17.5347 27.7558C17.5347 27.2967 17.1525 26.9218 16.6717 26.8983V26.8971H16.6238H16.2058C16.0415 26.4678 15.6501 26.1508 15.1786 26.0932C15.1792 25.7259 15.1862 25.361 15.2 24.999H15.7402C15.9898 24.999 16.1922 24.7967 16.1922 24.5471C16.1922 24.2975 15.9898 24.0951 15.7402 24.0951H15.2498C15.4925 20.7516 16.3887 17.739 18.4452 15.7336C18.621 15.5378 18.8384 15.0828 18.3014 14.8297H15.8082C15.2288 13.4341 13.8498 12.9143 12.7884 12.7234Z" fill="#7EA1C4"/>
</g>
<defs>
<clipPath id="clip0_313_688">
<rect width="88" height="60" fill="white"/>
</clipPath>
</defs>
</svg>
