<svg width="92" height="60" viewBox="0 0 92 60" fill="none" xmlns="http://www.w3.org/2000/svg">
<g clip-path="url(#clip0_310_1490)">
<rect width="92" height="60" fill="white"/>
<rect x="76" y="38" width="10" height="4" fill="white"/>
<rect width="92" height="60" fill="#0D0733"/>
<path d="M57.6682 19.2444L62.8451 36.1992H63.0372L68.2141 19.2444H74.476L66.6655 42.3933H59.2167L51.4062 19.2444H57.6682Z" fill="white"/>
<path d="M48.2486 42.3933H42.2354L50.0458 19.2444H57.4946L65.3051 42.3933H59.2919L53.855 25.0768H53.6742L48.2486 42.3933ZM47.4461 33.2829H60.0153V37.5329H47.4461V33.2829Z" fill="white"/>
<path d="M28.3164 42.3933V19.2444H37.9693C39.7025 19.2444 41.153 19.4893 42.321 19.9791C43.4966 20.4689 44.3782 21.1546 44.966 22.0363C45.5613 22.9179 45.8589 23.939 45.8589 25.0994C45.8589 25.9811 45.6743 26.7685 45.3051 27.4618C44.9358 28.1475 44.4272 28.7165 43.7792 29.1686C43.1311 29.6207 42.3813 29.9372 41.5298 30.118V30.3441C42.4642 30.3893 43.327 30.6418 44.1182 31.1014C44.917 31.5611 45.5575 32.2016 46.0398 33.023C46.5221 33.8368 46.7632 34.8013 46.7632 35.9166C46.7632 37.1599 46.4467 38.2714 45.8137 39.251C45.1807 40.2231 44.2652 40.9917 43.0671 41.5569C41.8689 42.1145 40.4146 42.3933 38.704 42.3933H28.3164ZM33.9115 37.8833H37.3703C38.5835 37.8833 39.4764 37.6535 40.0491 37.1938C40.6293 36.7342 40.9195 36.0937 40.9195 35.2723C40.9195 34.677 40.78 34.1646 40.5012 33.7351C40.2224 33.298 39.8268 32.9627 39.3144 32.7291C38.802 32.4879 38.1878 32.3674 37.472 32.3674H33.9115V37.8833ZM33.9115 28.7617H37.0086C37.6189 28.7617 38.1615 28.6599 38.6362 28.4565C39.1109 28.253 39.4802 27.9591 39.7439 27.5748C40.0152 27.1905 40.1508 26.7271 40.1508 26.1845C40.1508 25.4084 39.8758 24.798 39.3257 24.3534C38.7756 23.9088 38.0334 23.6865 37.099 23.6865H33.9115V28.7617Z" fill="white"/>
<path d="M28.3164 42.3933V19.2444H37.9693C39.7025 19.2444 41.153 19.4893 42.321 19.9791C43.4966 20.4689 44.3782 21.1546 44.966 22.0363C45.5613 22.9179 45.8589 23.939 45.8589 25.0994C45.8589 25.9811 45.6743 26.7685 45.3051 27.4618C44.9358 28.1475 44.4272 28.7165 43.7792 29.1686C43.1311 29.6207 42.3813 29.9372 41.5298 30.118V30.3441C42.4642 30.3893 43.327 30.6418 44.1182 31.1014C44.917 31.5611 45.5575 32.2016 46.0398 33.023C46.5221 33.8368 46.7632 34.8013 46.7632 35.9166C46.7632 37.1599 46.4467 38.2714 45.8137 39.251C45.1807 40.2231 44.2652 40.9917 43.0671 41.5569C41.8689 42.1145 40.4146 42.3933 38.704 42.3933H28.3164ZM33.9115 37.8833H37.3703C38.5835 37.8833 39.4764 37.6535 40.0491 37.1938C40.6293 36.7342 40.9195 36.0937 40.9195 35.2723C40.9195 34.677 40.78 34.1646 40.5012 33.7351C40.2224 33.298 39.8268 32.9627 39.3144 32.7291C38.802 32.4879 38.1878 32.3674 37.472 32.3674H33.9115V37.8833ZM33.9115 28.7617H37.0086C37.6189 28.7617 38.1615 28.6599 38.6362 28.4565C39.1109 28.253 39.4802 27.9591 39.7439 27.5748C40.0152 27.1905 40.1508 26.7271 40.1508 26.1845C40.1508 25.4084 39.8758 24.798 39.3257 24.3534C38.7756 23.9088 38.0334 23.6865 37.099 23.6865H33.9115V28.7617Z" fill="white"/>
<rect x="45.2783" y="28.4473" width="8.0524" height="2.95501" fill="#0D0733"/>
<rect x="60.3545" y="36.5776" width="9.91736" height="2.97521" fill="#0D0733"/>
<path fill-rule="evenodd" clip-rule="evenodd" d="M27.2982 17.8836C27.7291 17.6606 28.0203 17.2353 28.0203 16.7474C28.0203 16.0283 27.3878 15.4453 26.6075 15.4453C25.8273 15.4453 25.1947 16.0283 25.1947 16.7474C25.1947 17.2186 25.4663 17.6314 25.873 17.86C25.1642 17.9629 24.157 18.2838 23.7506 19.2628H22.1181C21.7665 19.4285 21.9088 19.7264 22.0239 19.8546C23.3705 21.1677 23.9573 23.1404 24.1163 25.3297H23.7956C23.6322 25.3297 23.4997 25.4622 23.4997 25.6257C23.4997 25.7891 23.6322 25.9216 23.7956 25.9216H24.1489C24.1579 26.1586 24.1625 26.3977 24.1629 26.6382C23.8548 26.6764 23.5992 26.8837 23.4918 27.1644H23.2484V27.1652C23.238 27.1647 23.2276 27.1644 23.217 27.1644C22.8876 27.1644 22.6205 27.4161 22.6205 27.7267C22.6205 28.0372 22.8876 28.289 23.217 28.289C23.2276 28.289 23.238 28.2887 23.2484 28.2882V28.289H24.1071C23.9315 30.9413 23.378 33.6246 22.9593 35.6547L22.9593 35.6548L22.9589 35.6564C22.9188 35.851 22.8799 36.0397 22.8427 36.2217H22.2717C21.8657 36.315 21.9333 36.6301 22.0179 36.7759C22.3732 36.9859 22.3457 37.4565 22.2082 37.7092C22.1912 37.8813 21.7911 38.0701 21.3649 38.2712C20.9964 38.4451 20.6084 38.6282 20.4319 38.8176C20.1274 39.1443 20.2416 39.5954 20.3368 39.7801L21.4152 40.6843C20.5017 41.0576 20.4848 41.4426 20.6223 41.5885L21.4153 42.4052H26.5133V42.4053H31.6114L32.4044 41.5886C32.5418 41.4428 32.525 41.0578 31.6114 40.6844L32.6899 39.7803C32.7851 39.5955 32.8993 39.1444 32.5947 38.8177C32.4182 38.6284 32.0303 38.4453 31.6617 38.2714C31.2356 38.0703 30.8354 37.8814 30.8184 37.7094C30.681 37.4566 30.6535 36.986 31.0087 36.776C31.0933 36.6302 31.161 36.3152 30.755 36.2219H30.184C30.1467 36.0393 30.1077 35.8501 30.0674 35.6549C29.6486 33.6247 29.0951 30.9413 28.9196 28.289H29.81H29.8414V28.2882C30.1562 28.2728 30.4065 28.0273 30.4065 27.7267C30.4065 27.4261 30.1562 27.1805 29.8414 27.1652V27.1644H29.81H29.5363C29.4288 26.8833 29.1725 26.6757 28.8638 26.638C28.8642 26.3975 28.8687 26.1586 28.8778 25.9216H29.2316C29.395 25.9216 29.5275 25.7891 29.5275 25.6257C29.5275 25.4622 29.395 25.3297 29.2316 25.3297H28.9104C29.0694 23.1404 29.6562 21.1679 31.0028 19.8548C31.1179 19.7265 31.2602 19.4286 30.9086 19.2629H29.276C28.8966 18.3488 27.9933 18.0085 27.2982 17.8836Z" fill="#FFC745"/>
</g>
<defs>
<clipPath id="clip0_310_1490">
<rect width="92" height="60" fill="white"/>
</clipPath>
</defs>
</svg>
