<svg width="256" height="256" viewBox="0 0 256 256" fill="none" xmlns="http://www.w3.org/2000/svg">
<g clip-path="url(#clip0_314_688)">
<rect width="256" height="256" fill="white"/>
<path d="M167 83H189V92H167V83Z" fill="white"/>
<path d="M0 0H451V300H0V0Z" fill="#0D0733"/>
<path d="M173.794 80.7957L193.956 146.829H194.704L214.867 80.7957H239.255L208.836 170.954H179.825L149.405 80.7957H173.794Z" fill="white"/>
<path d="M137.107 170.954H113.688L144.107 80.7957H173.118L203.537 170.954H180.117L158.943 103.511H158.238L137.107 170.954ZM133.982 135.472H182.935V152.024H133.982V135.472Z" fill="white"/>
<path d="M59.4775 170.954V80.7957H97.0728C103.823 80.7957 109.472 81.7495 114.021 83.6571C118.6 85.5648 122.034 88.2355 124.323 91.6692C126.641 95.103 127.8 99.0797 127.8 103.599C127.8 107.033 127.081 110.1 125.643 112.8C124.205 115.471 122.224 117.687 119.7 119.447C117.176 121.208 114.256 122.441 110.94 123.145V124.026C114.579 124.202 117.939 125.185 121.021 126.975C124.132 128.766 126.627 131.26 128.505 134.459C130.383 137.629 131.322 141.385 131.322 145.729C131.322 150.571 130.09 154.9 127.624 158.716C125.159 162.501 121.593 165.495 116.927 167.696C112.261 169.868 106.596 170.954 99.9342 170.954H59.4775ZM81.2687 153.389H94.7396C99.4647 153.389 102.942 152.494 105.173 150.703C107.433 148.913 108.563 146.419 108.563 143.22C108.563 140.901 108.02 138.905 106.934 137.233C105.848 135.53 104.307 134.224 102.311 133.315C100.316 132.375 97.9239 131.906 95.1358 131.906H81.2687V153.389ZM81.2687 117.863H93.3308C95.7081 117.863 97.8211 117.466 99.6701 116.674C101.519 115.882 102.957 114.737 103.984 113.24C105.041 111.743 105.569 109.939 105.569 107.825C105.569 104.803 104.498 102.425 102.355 100.694C100.213 98.9623 97.3222 98.0965 93.683 98.0965H81.2687V117.863Z" fill="white"/>
<path d="M59.4775 170.954V80.7957H97.0728C103.823 80.7957 109.472 81.7495 114.021 83.6571C118.6 85.5648 122.034 88.2355 124.323 91.6692C126.641 95.103 127.8 99.0797 127.8 103.599C127.8 107.033 127.081 110.1 125.643 112.8C124.205 115.471 122.224 117.687 119.7 119.447C117.176 121.208 114.256 122.441 110.94 123.145V124.026C114.579 124.202 117.939 125.185 121.021 126.975C124.132 128.766 126.627 131.26 128.505 134.459C130.383 137.629 131.322 141.385 131.322 145.729C131.322 150.571 130.09 154.9 127.624 158.716C125.159 162.501 121.593 165.495 116.927 167.696C112.261 169.868 106.596 170.954 99.9342 170.954H59.4775ZM81.2687 153.389H94.7396C99.4647 153.389 102.942 152.494 105.173 150.703C107.433 148.913 108.563 146.419 108.563 143.22C108.563 140.901 108.02 138.905 106.934 137.233C105.848 135.53 104.307 134.224 102.311 133.315C100.316 132.375 97.9239 131.906 95.1358 131.906H81.2687V153.389ZM81.2687 117.863H93.3308C95.7081 117.863 97.8211 117.466 99.6701 116.674C101.519 115.882 102.957 114.737 103.984 113.24C105.041 111.743 105.569 109.939 105.569 107.825C105.569 104.803 104.498 102.425 102.355 100.694C100.213 98.9623 97.3222 98.0965 93.683 98.0965H81.2687V117.863Z" fill="white"/>
<path d="M125.538 116.638H156.9V128.147H125.538V116.638Z" fill="#0D0733"/>
<path d="M184.256 148.304H222.881V159.891H184.256V148.304Z" fill="#0D0733"/>
<path fill-rule="evenodd" clip-rule="evenodd" d="M55.5129 75.4956C57.1903 74.6268 58.3236 72.9711 58.3236 71.0714C58.3236 68.2705 55.8601 66 52.8212 66C49.7823 66 47.3189 68.2705 47.3189 71.0714C47.3189 72.9063 48.3761 74.5136 49.9598 75.404C47.1992 75.8052 43.2774 77.055 41.6947 80.8672H35.3365C33.967 81.5127 34.5213 82.673 34.9696 83.1724C40.2143 88.2866 42.4998 95.9694 43.1188 104.496H41.8698C41.2332 104.496 40.7172 105.013 40.7172 105.649C40.7172 106.286 41.2332 106.802 41.8698 106.802H43.2458C43.2811 107.725 43.2988 108.656 43.3005 109.593C42.1007 109.742 41.1052 110.549 40.6868 111.642H39.7385V111.645C39.698 111.643 39.6573 111.642 39.6163 111.642C38.3332 111.642 37.293 112.623 37.293 113.832C37.293 115.041 38.3332 116.022 39.6163 116.022C39.6573 116.022 39.698 116.021 39.7385 116.019V116.022H43.0829C42.3993 126.352 40.2437 136.802 38.6127 144.709L38.6124 144.71C38.4557 145.47 38.3038 146.207 38.1585 146.917H35.9347C34.3534 147.281 34.617 148.508 34.9464 149.076C36.3301 149.894 36.223 151.726 35.6877 152.711C35.6214 153.381 34.0629 154.116 32.4031 154.9C30.9679 155.577 29.4568 156.29 28.7694 157.027C27.5834 158.3 28.0281 160.057 28.3987 160.776L32.5991 164.298C29.0412 165.752 28.9754 167.251 29.5107 167.819L32.5992 171H52.4543V171H72.3099L75.3984 167.819C75.9338 167.251 75.868 165.752 72.31 164.298L76.5104 160.776C76.881 160.057 77.3258 158.3 76.1398 157.028C75.4523 156.29 73.9413 155.577 72.506 154.9C70.8462 154.116 69.2877 153.381 69.2215 152.711C68.6861 151.726 68.5791 149.894 69.9627 149.076C70.2922 148.508 70.5557 147.281 68.9744 146.917H66.7507C66.6053 146.206 66.4533 145.47 66.2965 144.709C64.6655 136.802 62.5098 126.352 61.8262 116.022H65.2939H65.4162V116.019C66.6424 115.959 67.6171 115.003 67.6171 113.832C67.6171 112.661 66.6424 111.705 65.4162 111.645V111.642H65.2939H64.2281C63.8091 110.547 62.811 109.739 61.6087 109.592C61.6104 108.656 61.6281 107.725 61.6634 106.802H63.0413C63.6778 106.802 64.1939 106.286 64.1939 105.649C64.1939 105.013 63.6778 104.496 63.0413 104.496H61.7903C62.4093 95.9695 64.6949 88.2867 69.9395 83.1725C70.3878 82.6731 70.9422 81.5128 69.5727 80.8673H63.2144C61.7368 77.3079 58.2199 75.9823 55.5129 75.4956Z" fill="#7EA1C4"/>
</g>
<defs>
<clipPath id="clip0_314_688">
<rect width="256" height="256" fill="white"/>
</clipPath>
</defs>
</svg>
