<svg width="450" height="300" viewBox="0 0 450 300" fill="none" xmlns="http://www.w3.org/2000/svg">
<g clip-path="url(#clip0_310_1517)">
<rect width="450" height="300" fill="white"/>
<path d="M167 83H189V92H167V83Z" fill="white"/>
<path d="M0 0H451V300H0V0Z" fill="#0D0733"/>
<path d="M297.784 63.364L333.71 181.027H335.044L370.97 63.364H414.427L360.224 224.013H308.531L254.327 63.364H297.784Z" fill="white"/>
<path d="M232.416 224.013H190.685L244.888 63.364H296.581L350.785 224.013H309.054L271.323 103.84H270.068L232.416 224.013ZM226.846 160.789H314.074V190.283H226.846V160.789Z" fill="white"/>
<path d="M94.0889 224.013V63.364H161.078C173.106 63.364 183.173 65.0636 191.279 68.4627C199.436 71.8619 205.555 76.6207 209.634 82.7392C213.765 88.8577 215.831 95.9436 215.831 103.997C215.831 110.115 214.55 115.58 211.987 120.391C209.425 125.15 205.895 129.098 201.398 132.236C196.9 135.374 191.697 137.57 185.788 138.825V140.394C192.272 140.708 198.26 142.46 203.751 145.65C209.294 148.84 213.739 153.285 217.086 158.985C220.433 164.633 222.106 171.326 222.106 179.066C222.106 187.695 219.91 195.408 215.517 202.206C211.124 208.952 204.771 214.286 196.456 218.209C188.141 222.078 178.048 224.013 166.177 224.013H94.0889ZM132.918 192.715H156.921C165.34 192.715 171.537 191.12 175.512 187.93C179.538 184.74 181.552 180.295 181.552 174.595C181.552 170.464 180.584 166.907 178.649 163.927C176.714 160.894 173.969 158.566 170.413 156.945C166.857 155.272 162.595 154.435 157.627 154.435H132.918V192.715ZM132.918 129.412H154.411C158.647 129.412 162.412 128.706 165.706 127.294C169.001 125.882 171.563 123.843 173.394 121.176C175.276 118.509 176.218 115.293 176.218 111.527C176.218 106.141 174.309 101.905 170.491 98.8198C166.674 95.7344 161.523 94.1917 155.038 94.1917H132.918V129.412Z" fill="white"/>
<path d="M94.0889 224.013V63.364H161.078C173.106 63.364 183.173 65.0636 191.279 68.4627C199.436 71.8619 205.555 76.6207 209.634 82.7392C213.765 88.8577 215.831 95.9436 215.831 103.997C215.831 110.115 214.55 115.58 211.987 120.391C209.425 125.15 205.895 129.098 201.398 132.236C196.9 135.374 191.697 137.57 185.788 138.825V140.394C192.272 140.708 198.26 142.46 203.751 145.65C209.294 148.84 213.739 153.285 217.086 158.985C220.433 164.633 222.106 171.326 222.106 179.066C222.106 187.695 219.91 195.408 215.517 202.206C211.124 208.952 204.771 214.286 196.456 218.209C188.141 222.078 178.048 224.013 166.177 224.013H94.0889ZM132.918 192.715H156.921C165.34 192.715 171.537 191.12 175.512 187.93C179.538 184.74 181.552 180.295 181.552 174.595C181.552 170.464 180.584 166.907 178.649 163.927C176.714 160.894 173.969 158.566 170.413 156.945C166.857 155.272 162.595 154.435 157.627 154.435H132.918V192.715ZM132.918 129.412H154.411C158.647 129.412 162.412 128.706 165.706 127.294C169.001 125.882 171.563 123.843 173.394 121.176C175.276 118.509 176.218 115.293 176.218 111.527C176.218 106.141 174.309 101.905 170.491 98.8198C166.674 95.7344 161.523 94.1917 155.038 94.1917H132.918V129.412Z" fill="white"/>
<path d="M211.8 127.231H267.682V147.738H211.8V127.231Z" fill="#0D0733"/>
<path d="M316.426 183.654H385.25V204.301H316.426V183.654Z" fill="#0D0733"/>
<path fill-rule="evenodd" clip-rule="evenodd" d="M87.0242 53.9198C90.0131 52.3717 92.0324 49.4215 92.0324 46.0365C92.0324 41.0458 87.6428 37 82.2279 37C76.8131 37 72.4235 41.0458 72.4235 46.0365C72.4235 49.306 74.3074 52.17 77.1293 53.7566C72.2103 54.4715 65.2221 56.6984 62.4021 63.4914H51.0726C48.6324 64.6415 49.6201 66.7089 50.4189 67.5989C59.7641 76.7116 63.8367 90.4014 64.9397 105.595H62.714C61.5797 105.595 60.6602 106.515 60.6602 107.649C60.6602 108.783 61.5797 109.703 62.714 109.703H65.1659C65.2288 111.348 65.2604 113.007 65.2633 114.677C63.1255 114.942 61.3516 116.38 60.6062 118.328H58.9164V118.333C58.8443 118.33 58.7717 118.328 58.6986 118.328C56.4123 118.328 54.5589 120.075 54.5589 122.23C54.5589 124.385 56.4123 126.132 58.6986 126.132C58.7717 126.132 58.8443 126.13 58.9164 126.127V126.132H64.8757C63.6576 144.539 59.8165 163.16 56.9103 177.249L56.9098 177.251C56.6305 178.605 56.3599 179.917 56.101 181.183H52.1386C49.3209 181.831 49.7905 184.017 50.3775 185.029C52.843 186.487 52.6522 189.752 51.6983 191.506C51.5803 192.701 48.8033 194.011 45.8458 195.407C43.2883 196.614 40.5959 197.884 39.3709 199.198C37.2576 201.465 38.0501 204.596 38.7105 205.878L46.195 212.153C39.8552 214.744 39.738 217.416 40.6919 218.428L46.1952 224.095H81.5741V224.095H116.954L122.457 218.428C123.411 217.416 123.294 214.744 116.954 212.153L124.439 205.878C125.099 204.596 125.892 201.465 123.778 199.198C122.553 197.884 119.861 196.614 117.304 195.407C114.346 194.011 111.569 192.701 111.451 191.507C110.497 189.752 110.306 186.487 112.772 185.029C113.359 184.017 113.828 181.831 111.011 181.184H107.048C106.789 179.917 106.518 178.604 106.239 177.249C103.333 163.16 99.4917 144.539 98.2736 126.132H104.453H104.67V126.127C106.855 126.02 108.592 124.316 108.592 122.23C108.592 120.144 106.855 118.44 104.67 118.333V118.328H104.453H102.553C101.807 116.377 100.028 114.937 97.886 114.675C97.889 113.006 97.9205 111.348 97.9835 109.703H100.439C101.573 109.703 102.492 108.783 102.492 107.649C102.492 106.515 101.573 105.595 100.439 105.595H98.2097C99.3126 90.4015 103.385 76.7118 112.73 67.5991C113.529 66.7091 114.517 64.6417 112.077 63.4916H100.747C98.1142 57.1491 91.8476 54.7871 87.0242 53.9198Z" fill="#7EA1C4"/>
</g>
<defs>
<clipPath id="clip0_310_1517">
<rect width="450" height="300" fill="white"/>
</clipPath>
</defs>
</svg>
